<svg id="svg" version="1.1" xmlns="http://www.w3.org/2000/svg" width="400" height="570.2127659574468" viewBox="0, 0, 400,570.2127659574468">
    <g id="svg">
        <path id="path0" d="M228.200 54.080 C 223.806 54.674,223.529 55.593,226.762 58.848 C 232.128 64.250,232.497 66.864,232.333 98.315 L 232.200 123.800 231.062 125.736 C 229.322 128.697,227.085 129.591,221.400 129.597 C 217.421 129.602,216.773 129.710,214.627 130.721 L 212.254 131.839 214.236 132.692 C 218.799 134.654,253.473 134.023,253.587 131.975 C 253.668 130.535,251.150 129.537,246.949 129.343 C 242.240 129.125,240.901 128.788,238.895 127.312 C 236.064 125.229,236.210 127.230,236.112 89.200 L 236.025 55.000 235.168 54.300 C 234.221 53.526,232.667 53.477,228.200 54.080 M216.003 62.996 L 215.061 64.000 215.982 64.981 L 216.903 65.961 218.866 64.966 C 220.860 63.956,221.012 63.409,219.461 62.829 C 217.184 61.978,216.950 61.989,216.003 62.996 M292.929 241.730 C 291.141 242.391,291.041 242.604,292.168 243.342 C 293.891 244.471,304.181 244.466,305.970 243.336 L 307.338 242.472 305.196 241.836 C 302.649 241.080,294.872 241.013,292.929 241.730 M233.115 249.027 C 232.133 251.020,232.098 251.703,232.871 253.700 C 233.445 255.182,233.806 255.091,235.030 253.152 C 236.198 251.302,236.138 249.723,234.835 248.027 L 234.087 247.055 233.115 249.027 M104.897 248.508 C 98.889 249.743,97.744 250.470,97.459 253.230 C 97.332 254.457,97.113 255.762,96.971 256.130 C 96.800 256.577,96.919 256.800,97.329 256.800 C 97.982 256.800,99.200 255.766,99.200 255.211 C 99.200 254.331,102.219 254.000,110.227 254.000 C 120.561 254.000,119.997 253.830,120.010 256.943 C 120.015 258.319,120.514 261.288,121.144 263.693 L 122.268 267.986 121.586 272.493 C 121.210 274.972,120.713 278.334,120.479 279.964 C 120.211 281.840,119.739 283.357,119.193 284.095 C 118.372 285.206,118.365 285.286,119.046 285.784 C 120.257 286.670,123.612 283.358,125.431 279.482 L 126.894 276.363 126.459 272.231 C 126.137 269.186,126.143 267.196,126.481 264.671 C 127.209 259.234,125.768 256.209,121.797 254.837 C 120.699 254.458,119.785 253.979,119.767 253.774 C 119.421 249.801,117.654 248.709,111.097 248.413 C 108.510 248.296,105.720 248.339,104.897 248.508 M284.100 249.612 C 283.008 250.964,282.988 251.284,283.938 252.144 C 284.902 253.017,286.860 251.716,286.523 250.426 C 286.079 248.730,285.083 248.395,284.100 249.612 M53.904 249.900 C 53.052 250.797,52.839 251.443,52.754 253.400 C 52.696 254.720,52.396 256.668,52.086 257.728 C 51.384 260.135,51.739 260.563,53.050 258.888 C 53.604 258.180,54.373 257.600,54.758 257.600 C 55.435 257.600,58.800 252.350,58.800 251.293 C 58.800 250.785,56.078 248.800,55.382 248.800 C 55.144 248.800,54.479 249.295,53.904 249.900 M93.600 259.166 L 92.200 259.428 93.400 259.685 C 94.197 259.856,94.797 259.750,95.186 259.371 C 95.807 258.765,95.775 258.761,93.600 259.166 M46.283 262.930 C 44.104 266.259,43.516 268.091,43.794 270.686 C 43.994 272.547,44.195 273.142,44.534 272.876 C 44.790 272.675,45.477 272.396,46.061 272.257 C 48.325 271.718,50.609 266.442,49.658 263.949 C 49.062 262.388,47.038 261.776,46.283 262.930 M224.353 265.160 C 222.804 269.292,224.179 272.119,226.325 269.216 C 227.366 267.807,227.416 266.776,226.562 264.271 C 225.730 261.829,225.578 261.890,224.353 265.160 M38.023 276.173 C 36.973 277.437,34.747 284.987,34.952 286.586 C 35.066 287.474,35.168 288.330,35.180 288.488 C 35.191 288.647,36.039 288.284,37.064 287.681 C 39.087 286.493,40.121 284.901,40.754 282.000 C 40.970 281.010,41.327 279.390,41.548 278.400 C 41.768 277.410,41.825 276.488,41.674 276.352 C 41.061 275.798,38.441 275.669,38.023 276.173 M216.687 276.278 C 216.584 276.455,216.377 277.611,216.228 278.847 C 216.078 280.082,215.717 281.997,215.426 283.101 C 214.620 286.155,216.529 286.887,217.747 283.991 C 218.942 281.149,217.970 274.073,216.687 276.278 M310.216 276.467 C 309.595 278.264,309.818 283.514,310.500 283.148 C 311.179 282.783,311.260 282.247,311.375 277.333 C 311.401 276.208,310.530 275.557,310.216 276.467 M62.657 283.941 C 61.645 284.997,61.600 285.231,61.600 289.463 C 61.600 294.517,61.186 295.502,58.064 297.883 L 56.338 299.200 51.053 299.200 C 47.434 299.200,45.016 298.996,43.384 298.553 C 42.073 298.197,40.347 297.775,39.548 297.616 C 37.012 297.108,33.560 294.565,32.997 292.790 C 32.744 291.995,31.357 291.200,30.220 291.200 C 28.175 291.200,27.033 301.372,28.884 303.098 C 30.410 304.520,36.138 305.194,46.800 305.204 C 59.498 305.217,60.979 306.174,61.465 314.683 C 61.706 318.918,61.782 319.225,62.844 320.242 L 63.968 321.319 65.352 320.264 C 66.602 319.311,66.758 318.967,66.974 316.704 C 67.697 309.098,67.188 285.629,66.275 284.474 C 65.093 282.980,63.764 282.785,62.657 283.941 M112.686 290.450 C 109.575 294.831,110.166 296.903,114.003 295.062 C 116.510 293.859,117.983 290.211,116.831 288.058 C 116.017 286.536,115.084 287.075,112.686 290.450 M301.082 291.947 C 300.204 293.275,300.125 293.605,300.592 293.993 C 301.468 294.720,302.801 293.808,302.794 292.486 C 302.782 290.426,302.208 290.246,301.082 291.947 M104.231 299.743 C 102.143 302.187,102.109 302.322,103.206 303.716 C 105.032 306.038,109.419 302.526,108.848 299.200 C 108.465 296.973,106.389 297.217,104.231 299.743 M215.600 298.306 C 212.720 298.657,209.625 300.760,210.334 301.884 C 211.352 303.501,217.087 304.400,226.385 304.400 C 233.465 304.400,236.238 304.553,238.665 305.076 C 243.739 306.169,248.261 306.169,248.554 305.075 C 248.908 303.756,248.835 299.874,248.445 299.258 C 248.039 298.618,242.736 298.792,238.225 299.593 C 234.007 300.342,222.102 299.945,219.000 298.953 C 217.680 298.530,216.150 298.239,215.600 298.306 M292.400 300.661 L 291.093 302.149 292.225 303.123 L 293.358 304.097 294.243 302.987 C 295.999 300.785,294.240 298.565,292.400 300.661 M95.881 308.500 C 94.902 309.655,93.969 311.050,93.809 311.600 C 93.379 313.072,91.725 315.830,90.292 317.462 C 87.382 320.776,92.771 322.000,110.274 322.000 C 124.620 322.000,126.048 321.843,127.824 320.067 L 128.823 319.068 127.773 317.972 C 126.323 316.458,124.095 316.001,118.123 315.993 C 107.868 315.979,105.259 315.404,102.085 312.457 C 100.594 311.073,100.384 310.673,100.470 309.385 C 100.547 308.245,100.357 307.732,99.641 307.152 C 98.266 306.039,97.838 306.193,95.881 308.500 M283.851 309.212 C 283.291 309.878,282.720 311.093,282.583 311.912 C 282.371 313.179,281.661 316.053,280.967 318.446 C 280.257 320.898,317.168 322.313,320.173 319.950 L 321.254 319.100 320.192 317.991 L 319.130 316.883 306.665 316.712 C 291.441 316.503,289.667 315.950,287.615 310.778 C 286.428 307.787,285.408 307.362,283.851 309.212 M229.633 428.270 C 223.905 429.017,223.284 429.972,226.556 432.996 C 228.249 434.560,230.593 438.602,231.490 441.505 C 232.566 444.983,232.582 497.537,231.508 499.400 C 229.379 503.093,227.403 503.979,221.275 503.991 C 217.167 503.999,216.544 504.101,214.519 505.092 L 212.288 506.184 214.244 507.068 C 216.164 507.934,216.528 507.951,233.878 507.975 L 251.555 508.000 252.603 507.099 L 253.650 506.198 252.399 504.999 C 251.188 503.838,251.001 503.794,246.474 503.600 C 240.875 503.360,238.649 502.383,237.099 499.483 L 236.200 497.800 236.109 463.652 C 236.041 437.939,235.901 429.363,235.542 428.930 C 234.627 427.827,233.770 427.731,229.633 428.270 M216.100 437.177 C 214.973 438.117,214.974 438.449,216.106 439.512 L 217.012 440.363 218.575 439.481 C 220.655 438.309,220.768 437.713,219.048 436.994 C 217.278 436.255,217.200 436.259,216.100 437.177 " stroke="none" fill="#89948b" fill-rule="evenodd"/>
        <path id="path1" d="M0.000 285.000 L 0.000 570.000 200.000 570.000 L 400.000 570.000 400.000 285.000 L 400.000 0.000 200.000 0.000 L 0.000 0.000 0.000 285.000 M237.812 49.611 C 239.313 50.374,240.020 51.056,240.700 52.396 L 241.600 54.170 241.600 84.265 C 241.600 115.806,241.701 117.853,243.341 119.423 C 244.686 120.712,249.756 123.600,250.673 123.600 C 260.130 123.600,262.082 136.447,252.924 138.411 C 249.100 139.231,208.575 138.763,206.600 137.876 C 197.263 133.683,201.371 124.544,212.968 123.712 L 217.315 123.400 218.463 121.980 C 221.003 118.837,221.200 117.015,221.196 96.801 C 221.190 75.132,221.269 75.898,218.941 74.772 L 217.184 73.921 215.917 75.160 C 209.347 81.583,201.585 77.298,202.584 67.800 C 203.230 61.671,203.774 60.777,208.317 58.392 C 209.702 57.665,211.322 56.465,211.917 55.726 C 214.787 52.164,215.707 51.257,216.904 50.806 C 217.617 50.538,218.590 50.135,219.067 49.910 C 222.976 48.063,234.411 47.881,237.812 49.611 M110.349 59.204 C 114.401 60.059,116.327 61.013,117.593 62.790 C 118.385 63.902,118.400 64.477,118.400 93.700 C 118.400 121.557,118.445 123.516,119.100 124.091 C 120.399 125.233,122.983 126.289,126.200 126.993 C 130.491 127.932,134.800 130.455,134.800 132.029 C 134.800 132.738,131.467 135.199,129.352 136.052 L 127.000 137.000 108.400 137.000 L 89.800 137.000 88.262 136.044 C 87.416 135.518,86.209 134.377,85.580 133.508 L 84.436 131.929 85.471 130.364 C 87.117 127.877,88.387 127.331,93.800 126.786 C 97.480 126.414,99.183 126.039,101.100 125.176 L 103.600 124.050 103.600 101.786 L 103.600 79.521 102.419 78.418 C 99.807 75.978,94.871 76.030,90.897 78.539 L 89.337 79.523 88.137 77.662 C 84.851 72.565,85.157 71.163,90.201 68.214 C 91.956 67.188,93.619 65.776,94.910 64.214 C 97.142 61.513,99.325 60.182,103.200 59.158 C 106.503 58.285,105.977 58.281,110.349 59.204 M59.709 61.645 L 61.639 63.490 60.877 65.445 C 58.347 71.939,57.853 72.854,55.569 75.289 C 53.680 77.304,52.983 78.438,52.041 81.028 C 50.548 85.134,49.542 86.912,47.554 88.960 C 45.534 91.040,44.274 93.163,43.256 96.200 C 41.824 100.472,41.270 101.457,38.993 103.790 C 36.845 105.989,36.781 106.116,37.440 106.844 C 38.834 108.385,45.470 109.686,50.400 109.386 C 55.387 109.082,55.580 109.031,57.100 107.637 L 58.400 106.445 58.400 102.203 C 58.400 93.174,64.531 90.108,68.980 96.911 C 70.039 98.531,70.108 130.657,69.057 132.691 C 67.374 135.944,63.634 137.215,61.301 135.327 C 58.612 133.150,58.295 132.431,57.961 127.752 C 57.473 120.923,57.394 120.892,39.602 120.571 L 29.804 120.394 28.015 119.288 C 23.535 116.518,22.779 108.067,26.414 101.400 C 26.774 100.740,27.199 99.660,27.359 99.000 C 27.732 97.465,29.551 94.800,30.227 94.800 C 31.034 94.800,32.198 92.897,33.574 89.329 C 34.268 87.531,35.275 85.412,35.813 84.619 C 36.351 83.826,37.061 82.656,37.391 82.017 C 37.721 81.379,38.356 80.741,38.802 80.599 C 39.709 80.311,40.693 78.561,42.348 74.287 C 43.754 70.656,46.168 66.869,47.365 66.413 C 47.877 66.219,48.648 65.285,49.111 64.300 C 51.649 58.901,55.763 57.870,59.709 61.645 M307.407 236.147 C 312.947 236.979,314.731 238.160,317.163 242.606 C 317.646 243.490,318.496 244.570,319.052 245.006 C 323.955 248.859,324.394 249.703,325.231 256.893 C 326.421 267.103,324.477 276.416,320.528 279.428 C 319.190 280.448,317.361 283.609,316.409 286.546 C 315.778 288.493,313.273 291.033,311.627 291.394 C 310.238 291.699,309.523 292.583,308.638 295.092 C 307.712 297.718,306.487 299.052,303.961 300.185 C 301.109 301.465,301.185 301.344,300.739 305.330 C 300.539 307.117,300.113 308.979,299.792 309.468 C 298.871 310.874,299.439 310.970,310.200 311.222 C 321.315 311.482,322.105 311.647,324.324 314.175 C 327.632 317.942,326.659 322.619,322.098 324.865 L 320.200 325.800 299.400 325.800 C 273.746 325.800,272.844 325.659,270.803 321.317 C 268.678 316.797,270.935 307.803,274.815 305.328 C 277.576 303.568,278.421 302.699,279.251 300.770 C 280.189 298.589,282.450 296.324,284.575 295.436 C 285.691 294.970,286.198 294.354,287.131 292.327 C 288.488 289.381,290.130 287.603,292.541 286.470 C 294.036 285.767,294.385 285.349,295.154 283.340 C 296.177 280.668,297.301 279.093,300.341 276.077 C 304.925 271.530,306.485 261.877,303.457 256.800 C 302.009 254.372,302.692 254.639,295.748 253.788 L 293.696 253.536 292.445 255.268 C 291.758 256.221,290.701 257.390,290.098 257.866 C 289.494 258.342,287.756 259.910,286.236 261.351 C 280.093 267.171,273.936 267.367,270.044 261.866 L 268.677 259.932 269.389 256.066 C 270.843 248.176,272.078 245.593,275.144 244.028 C 276.027 243.578,277.597 242.093,278.777 240.592 C 281.192 237.518,282.880 236.622,287.295 236.068 C 291.851 235.496,303.374 235.542,307.407 236.147 M244.334 237.317 C 249.319 239.626,249.225 246.087,244.163 249.141 C 242.568 250.103,242.332 250.457,241.581 253.000 C 239.592 259.741,238.085 262.665,235.639 264.531 C 233.558 266.118,233.226 266.755,231.759 271.958 C 230.955 274.812,228.466 278.814,226.723 280.055 C 225.192 281.145,224.216 283.175,223.173 287.442 C 222.694 289.399,222.047 291.500,221.735 292.112 C 221.423 292.723,221.262 293.376,221.377 293.563 C 222.178 294.859,233.603 295.341,235.414 294.154 L 236.400 293.508 236.400 284.639 C 236.400 274.164,236.726 272.953,240.000 271.280 C 242.934 269.781,251.226 270.097,253.626 271.800 C 256.950 274.159,256.801 272.932,256.793 297.794 L 256.787 319.800 255.881 321.399 C 254.387 324.037,252.440 324.832,246.892 325.069 C 239.541 325.383,237.829 324.123,235.842 316.938 C 235.243 314.772,234.573 312.532,234.353 311.961 L 233.953 310.922 221.477 310.696 C 205.211 310.401,203.672 309.857,200.998 303.456 C 198.644 297.823,202.176 281.504,206.972 275.850 C 209.101 273.340,210.244 271.149,212.193 265.839 C 212.956 263.759,215.177 260.988,216.388 260.604 C 217.166 260.357,217.206 260.272,219.423 254.200 C 221.190 249.360,222.404 247.333,224.389 245.906 C 225.412 245.171,226.356 243.886,227.346 241.882 C 229.885 236.744,231.456 235.933,238.200 236.284 C 241.387 236.450,243.078 236.735,244.334 237.317 M59.400 244.851 C 60.601 245.164,61.669 245.983,63.683 248.134 L 66.367 251.000 65.028 252.400 C 64.147 253.321,63.247 255.032,62.397 257.400 C 59.876 264.429,59.307 265.317,56.361 266.820 C 55.066 267.481,54.863 267.806,54.446 269.880 C 54.190 271.156,53.535 273.280,52.992 274.600 C 52.448 275.920,52.003 277.245,52.002 277.546 C 52.001 277.846,51.613 278.780,51.140 279.622 C 50.365 281.000,49.745 281.431,47.521 282.142 C 46.573 282.445,45.591 284.508,44.961 287.519 C 44.667 288.925,43.988 290.860,43.452 291.819 L 42.478 293.562 44.496 294.232 C 46.680 294.957,50.229 294.825,52.158 293.946 C 53.187 293.478,53.200 293.416,53.200 289.168 L 53.200 284.865 54.649 283.532 C 55.447 282.800,56.767 281.541,57.583 280.735 C 62.146 276.233,70.271 277.963,71.977 283.800 C 72.906 286.977,72.376 319.862,71.365 321.800 C 67.171 329.840,54.552 325.297,52.179 314.893 C 51.051 309.944,51.866 310.250,39.142 310.008 C 26.535 309.768,25.637 309.552,23.131 306.154 C 22.399 305.162,21.371 303.812,20.846 303.153 C 19.702 301.718,20.134 296.748,21.814 292.000 C 22.320 290.570,23.294 287.562,23.979 285.316 C 25.301 280.981,26.345 279.350,28.785 277.810 C 30.030 277.024,30.395 276.418,31.355 273.547 C 33.335 267.619,34.997 264.578,37.011 263.192 C 38.958 261.853,40.010 260.118,40.768 257.000 C 41.726 253.056,44.553 248.981,47.400 247.443 C 48.060 247.086,49.080 246.412,49.667 245.944 C 51.909 244.156,55.289 243.776,59.400 244.851 M118.619 244.548 C 125.249 245.971,129.631 250.669,131.327 258.170 C 131.671 259.693,132.311 261.424,132.749 262.016 C 133.187 262.608,134.005 264.186,134.567 265.522 L 135.589 267.950 134.751 270.675 C 134.290 272.174,133.401 274.390,132.775 275.600 C 132.150 276.810,131.166 279.600,130.590 281.800 C 128.937 288.112,128.078 289.593,125.127 291.225 C 122.749 292.539,122.598 292.715,121.724 295.200 C 120.701 298.109,118.875 300.060,116.450 300.834 C 114.547 301.441,114.412 301.591,113.544 304.057 C 112.601 306.734,110.780 308.610,108.335 309.422 C 104.818 310.590,105.276 310.848,112.200 311.602 C 114.180 311.817,117.972 311.995,120.627 311.997 C 136.289 312.007,142.729 319.752,131.185 324.694 L 128.600 325.800 109.121 325.921 C 85.601 326.067,85.110 325.981,82.747 321.323 L 81.694 319.247 82.431 315.723 C 83.877 308.811,84.826 307.070,88.172 305.181 C 90.449 303.896,91.217 302.995,92.669 299.904 C 93.319 298.519,94.077 297.693,95.480 296.839 C 98.649 294.910,99.832 293.737,100.347 292.018 C 100.922 290.100,102.952 287.945,105.311 286.749 C 107.305 285.738,107.411 285.599,108.178 283.000 C 108.502 281.900,109.394 279.961,110.159 278.692 C 110.925 277.423,111.670 275.983,111.816 275.492 C 111.962 275.001,112.783 273.303,113.640 271.719 C 115.595 268.107,115.587 267.882,113.425 265.720 C 112.449 264.743,111.164 262.893,110.571 261.607 C 108.708 257.571,105.576 257.439,103.844 261.322 C 102.719 263.845,101.164 265.466,98.896 266.479 C 97.570 267.072,96.969 267.683,96.180 269.240 C 93.110 275.298,85.758 275.180,82.766 269.025 C 81.682 266.795,81.698 260.661,82.798 257.099 C 84.345 252.091,92.325 245.139,97.378 244.397 C 100.938 243.874,115.980 243.981,118.619 244.548 M238.000 424.000 C 239.262 424.701,240.069 425.534,240.700 426.785 L 241.600 428.570 241.600 458.618 C 241.600 491.186,241.686 492.730,243.561 493.922 C 244.133 494.285,244.690 494.685,244.800 494.811 C 245.559 495.681,249.598 497.693,251.320 498.058 C 260.643 500.036,262.068 510.097,253.382 512.622 C 250.556 513.444,209.710 513.285,207.089 512.442 C 203.253 511.209,200.811 507.425,201.961 504.498 C 203.743 499.960,206.154 498.527,212.661 498.137 C 220.780 497.650,220.913 497.249,221.105 472.600 C 221.283 449.887,221.323 450.325,218.947 449.174 L 217.146 448.302 216.073 449.299 C 209.153 455.731,201.570 451.991,202.489 442.600 C 203.090 436.460,204.150 434.662,208.322 432.701 C 210.126 431.853,211.978 430.175,214.196 427.379 C 217.535 423.168,232.643 421.024,238.000 424.000 M124.909 433.938 C 126.734 435.073,128.400 437.166,128.400 438.324 C 128.400 441.339,125.230 446.926,122.520 448.687 C 120.653 449.900,117.726 452.509,116.258 454.269 C 115.549 455.118,115.559 455.164,116.735 456.394 C 117.395 457.086,118.805 458.843,119.868 460.299 C 120.931 461.755,122.822 463.948,124.070 465.173 C 128.292 469.313,129.542 473.768,129.579 484.800 C 129.609 493.949,128.278 499.728,125.557 502.265 C 123.064 504.588,121.411 506.231,120.060 507.730 C 118.006 510.008,115.898 510.770,110.495 511.187 C 100.315 511.974,95.046 510.618,91.778 506.371 C 90.774 505.067,89.790 504.000,89.591 504.000 C 88.782 504.000,86.286 501.349,85.343 499.488 L 84.338 497.504 84.988 493.692 C 85.746 489.243,86.133 488.378,87.963 487.028 L 89.317 486.029 90.494 486.867 C 91.546 487.616,92.370 488.622,94.699 492.000 C 97.027 495.376,101.041 498.844,103.762 499.830 L 106.524 500.832 109.881 499.763 C 112.984 498.775,113.299 498.574,114.044 497.114 C 114.520 496.180,115.060 495.614,115.364 495.731 C 115.936 495.950,116.782 494.225,117.769 490.827 C 119.340 485.417,117.824 474.922,115.335 473.975 C 114.842 473.788,114.168 473.111,113.837 472.471 C 113.084 471.016,111.613 470.313,106.600 469.010 C 104.420 468.444,101.818 467.491,100.818 466.893 C 99.818 466.295,98.511 465.560,97.913 465.259 C 95.862 464.228,96.137 462.586,98.782 460.067 C 99.398 459.480,100.306 457.963,100.799 456.696 C 101.665 454.473,105.349 450.400,106.494 450.400 C 108.659 450.400,110.687 446.985,109.238 445.781 C 107.452 444.297,106.720 444.093,102.200 443.815 C 90.326 443.086,87.427 442.214,85.615 438.828 C 85.117 437.897,86.758 435.457,88.511 434.521 C 92.264 432.518,121.862 432.044,124.909 433.938 M57.116 433.991 C 61.370 436.258,61.876 437.452,60.253 441.403 C 58.138 446.556,57.651 447.410,55.551 449.662 C 53.280 452.097,52.791 452.922,51.800 456.000 C 50.845 458.962,49.357 461.454,47.331 463.485 C 45.771 465.050,42.800 470.460,42.800 471.738 C 42.800 473.090,41.071 475.990,39.002 478.110 C 36.646 480.523,36.582 480.869,38.325 481.746 C 43.650 484.424,54.377 484.543,57.049 481.953 L 58.400 480.643 58.400 476.152 C 58.400 467.565,64.769 464.478,68.854 471.087 C 70.089 473.085,70.205 505.216,68.984 507.083 C 64.620 513.756,58.397 510.709,57.901 501.657 C 57.559 495.416,55.964 494.861,38.247 494.820 C 29.104 494.798,28.425 494.643,26.062 492.035 C 24.236 490.019,24.078 489.312,24.398 484.600 C 24.686 480.370,25.004 478.917,26.254 476.108 C 26.571 475.398,27.089 474.081,27.406 473.182 C 28.130 471.131,29.485 469.200,30.200 469.200 C 31.032 469.200,32.151 467.350,33.582 463.610 C 34.296 461.746,35.375 459.496,35.980 458.610 C 36.586 457.725,37.382 456.505,37.750 455.900 C 38.118 455.295,38.680 454.800,38.999 454.800 C 39.687 454.800,40.468 453.372,42.227 448.897 C 43.768 444.978,46.119 441.287,47.378 440.808 C 47.875 440.619,48.650 439.685,49.100 438.732 C 51.079 434.547,54.434 432.562,57.116 433.991 " stroke="none" fill="#343434" fill-rule="evenodd"/>
        <path id="path2" d="M223.400 52.149 C 221.472 53.057,219.536 54.640,218.361 56.268 C 218.053 56.696,216.900 57.654,215.800 58.397 C 214.700 59.140,212.681 60.660,211.314 61.774 L 208.828 63.800 207.819 67.996 L 206.810 72.192 207.747 73.129 L 208.684 74.066 209.642 72.818 C 212.344 69.299,212.914 68.797,214.876 68.214 C 216.204 67.820,217.655 67.702,219.189 67.862 C 220.551 68.004,222.367 67.896,223.608 67.598 C 225.975 67.030,226.295 67.240,228.014 70.484 C 229.738 73.738,229.035 119.771,227.209 123.183 C 226.372 124.747,222.390 125.891,212.705 127.352 C 208.483 127.988,207.088 128.687,205.868 130.777 L 205.137 132.031 206.668 133.555 C 208.867 135.745,211.210 136.000,229.089 136.000 C 245.813 136.000,250.269 135.631,252.319 134.076 C 254.566 132.372,254.608 131.902,252.696 129.831 L 251.000 127.993 246.600 127.365 C 242.185 126.734,239.843 125.821,238.332 124.141 C 236.871 122.517,236.657 118.386,236.408 87.000 L 236.168 56.600 236.184 90.000 C 236.202 127.159,236.061 125.227,238.895 127.312 C 240.901 128.788,242.240 129.125,246.949 129.343 C 251.150 129.537,253.668 130.535,253.587 131.975 C 253.473 134.023,218.799 134.654,214.236 132.692 L 212.254 131.839 214.627 130.721 C 216.773 129.710,217.421 129.602,221.400 129.597 C 227.085 129.591,229.322 128.697,231.062 125.736 L 232.200 123.800 232.333 98.315 C 232.497 66.864,232.128 64.250,226.762 58.848 C 223.285 55.347,223.709 54.641,229.704 53.951 C 233.945 53.462,234.026 53.469,235.304 54.379 L 236.600 55.304 235.387 54.047 C 234.339 52.960,233.619 52.683,230.073 51.995 C 225.109 51.033,225.806 51.017,223.400 52.149 M219.461 62.829 C 221.012 63.409,220.860 63.956,218.866 64.966 L 216.903 65.961 215.982 64.981 L 215.061 64.000 216.003 62.996 C 216.950 61.989,217.184 61.978,219.461 62.829 M288.000 239.627 C 284.761 240.519,283.219 241.643,282.006 244.000 C 281.121 245.719,280.073 246.691,277.696 247.995 C 275.032 249.457,274.503 250.431,273.729 255.283 C 272.971 260.037,273.003 260.148,275.643 262.030 L 276.687 262.774 278.313 261.382 C 279.412 260.441,280.150 259.353,280.591 258.027 C 280.950 256.947,281.951 255.259,282.816 254.276 C 284.171 252.738,284.307 252.421,283.795 251.996 C 282.981 251.320,283.043 250.902,284.157 249.578 C 285.130 248.422,286.400 248.848,286.400 250.331 C 286.400 250.589,286.580 250.800,286.800 250.800 C 287.020 250.800,287.200 250.628,287.200 250.417 C 287.200 249.878,290.296 248.152,292.163 247.650 C 294.452 247.035,302.259 248.186,303.505 249.323 C 304.002 249.777,305.603 252.230,307.061 254.774 L 309.713 259.400 309.295 264.000 C 308.963 267.648,308.540 269.552,307.252 273.200 C 305.149 279.155,304.998 279.409,302.770 280.780 C 300.666 282.075,299.202 283.817,298.220 286.195 C 297.409 288.159,296.231 289.455,294.400 290.400 C 292.586 291.336,291.525 292.526,290.270 295.036 C 289.218 297.139,287.262 299.134,285.212 300.194 C 284.499 300.562,283.373 301.915,282.362 303.618 C 281.431 305.184,279.634 307.388,278.313 308.584 C 275.971 310.703,273.600 315.822,273.600 318.759 C 273.600 320.036,276.127 321.882,278.676 322.467 C 286.015 324.151,316.812 322.914,319.280 320.836 C 319.434 320.706,311.736 320.649,302.174 320.708 C 283.953 320.822,280.263 320.463,280.918 318.642 C 281.005 318.399,281.387 316.940,281.765 315.400 C 282.144 313.860,282.619 311.959,282.820 311.176 C 283.765 307.502,285.924 307.256,287.535 310.637 C 290.177 316.184,291.214 316.512,306.600 316.653 L 319.000 316.767 316.000 315.715 C 313.179 314.727,312.415 314.650,303.182 314.418 C 288.425 314.048,285.260 311.565,291.581 305.319 L 293.069 303.849 292.070 302.989 L 291.070 302.130 292.460 300.613 L 293.850 299.097 294.454 300.344 L 295.058 301.591 295.954 299.996 C 296.447 299.119,297.751 297.477,298.851 296.347 C 300.178 294.985,300.719 294.159,300.455 293.895 C 300.191 293.631,300.414 292.957,301.118 291.894 L 302.178 290.291 302.605 291.336 C 303.025 292.362,303.084 292.311,305.816 288.549 C 307.347 286.442,308.870 284.435,309.200 284.089 C 309.606 283.664,309.865 282.285,310.000 279.831 C 310.158 276.959,310.325 276.200,310.800 276.200 C 311.293 276.200,311.374 276.734,311.254 279.187 C 311.122 281.895,311.169 282.124,311.752 281.640 C 312.972 280.627,314.703 276.994,314.966 274.896 C 315.110 273.738,315.565 271.668,315.977 270.296 C 317.075 266.632,317.422 260.160,316.643 257.866 C 316.305 256.870,315.905 254.859,315.756 253.399 C 315.449 250.408,313.559 246.961,311.249 245.181 C 310.549 244.641,309.296 243.545,308.464 242.745 C 304.490 238.921,295.525 237.554,288.000 239.627 M232.510 240.897 C 231.797 241.638,230.875 243.322,230.373 244.800 C 229.057 248.670,227.450 251.629,225.814 253.200 C 223.895 255.041,222.176 257.788,221.616 259.908 C 220.784 263.058,219.567 265.387,217.805 267.200 C 215.801 269.262,213.224 273.911,212.172 277.360 C 211.596 279.251,210.967 280.208,209.014 282.171 C 205.981 285.219,204.781 289.270,204.492 297.429 L 204.322 302.259 206.268 304.376 L 208.215 306.494 212.808 306.824 C 215.333 307.005,221.238 307.164,225.928 307.177 L 234.456 307.200 236.128 308.353 C 238.746 310.159,239.031 310.698,239.756 315.200 C 240.620 320.565,241.296 321.427,244.314 321.012 C 247.653 320.553,247.853 320.109,248.149 312.500 C 248.289 308.925,248.267 305.992,248.101 305.981 C 247.936 305.971,246.450 305.916,244.800 305.859 C 243.150 305.802,240.389 305.451,238.665 305.078 C 236.232 304.552,233.480 304.400,226.385 304.400 C 214.429 304.400,208.915 303.043,210.734 300.547 C 212.213 298.517,215.742 297.870,219.200 298.994 C 222.103 299.938,234.157 300.316,238.225 299.592 C 239.751 299.320,242.628 299.014,244.617 298.913 L 248.234 298.728 248.080 287.664 C 247.903 274.940,247.935 275.050,244.282 274.549 C 242.629 274.323,242.238 274.412,241.386 275.213 L 240.400 276.139 240.400 284.823 L 240.400 293.507 238.818 294.936 C 235.388 298.035,234.849 298.153,225.448 297.851 C 213.091 297.454,210.318 294.894,214.438 287.687 C 214.851 286.964,215.166 285.974,215.138 285.487 C 215.111 284.999,215.377 283.160,215.731 281.400 C 216.085 279.640,216.425 277.750,216.487 277.200 C 216.566 276.504,216.843 276.200,217.400 276.200 C 218.131 276.200,218.200 276.467,218.200 279.300 C 218.200 281.005,218.308 282.400,218.441 282.400 C 218.810 282.400,221.092 277.179,221.413 275.600 C 221.758 273.904,222.922 271.529,223.741 270.849 C 224.248 270.428,224.261 270.162,223.830 269.135 C 223.378 268.061,223.439 267.599,224.353 265.160 C 225.613 261.797,225.778 261.770,226.704 264.787 L 227.437 267.175 228.161 265.287 C 228.559 264.249,229.416 261.870,230.065 260.000 C 230.714 258.130,231.701 256.123,232.258 255.541 C 233.085 254.677,233.193 254.335,232.846 253.685 C 232.114 252.319,232.226 250.668,233.175 248.829 L 234.089 247.057 234.826 248.029 C 235.231 248.563,235.719 249.630,235.910 250.400 L 236.257 251.800 236.952 249.460 C 237.333 248.172,238.086 246.125,238.623 244.910 C 239.865 242.102,239.876 242.189,238.100 241.048 C 235.544 239.406,233.984 239.364,232.510 240.897 M305.196 241.836 L 307.338 242.472 305.970 243.336 C 303.441 244.933,289.794 244.099,291.416 242.446 C 292.703 241.135,301.521 240.744,305.196 241.836 M100.321 247.206 C 96.683 247.554,94.683 248.766,92.770 251.783 C 92.065 252.894,91.067 253.865,90.294 254.190 C 85.903 256.037,84.605 260.453,87.000 265.400 C 88.332 268.151,89.248 268.673,90.283 267.270 C 91.665 265.396,95.272 259.509,94.894 259.742 C 94.695 259.865,94.007 259.809,93.366 259.617 L 92.200 259.269 93.484 259.234 C 95.733 259.174,97.050 257.187,97.458 253.239 C 97.744 250.478,97.509 250.695,101.600 249.408 C 104.973 248.347,113.320 247.903,115.494 248.669 C 116.037 248.860,116.096 248.804,115.747 248.426 C 114.689 247.277,106.422 246.623,100.321 247.206 M52.772 248.700 C 51.080 249.557,50.423 250.171,49.800 251.479 C 49.360 252.402,47.985 254.145,46.745 255.351 C 44.947 257.102,44.271 258.137,43.403 260.473 C 41.330 266.053,40.177 268.158,38.108 270.138 C 36.128 272.033,34.760 274.503,32.993 279.375 C 32.580 280.514,31.576 282.038,30.621 282.975 C 24.417 289.067,22.751 302.143,27.728 305.693 C 28.947 306.562,29.440 306.611,39.600 306.864 C 56.939 307.296,57.716 307.626,58.527 314.901 C 59.094 319.995,59.109 320.024,62.084 321.609 C 63.958 322.608,63.719 322.652,65.599 320.953 C 66.951 319.732,67.190 319.281,67.136 318.053 L 67.072 316.600 66.911 317.899 C 66.799 318.802,66.326 319.521,65.359 320.259 L 63.968 321.319 62.844 320.242 C 61.782 319.225,61.706 318.918,61.465 314.683 C 60.979 306.174,59.498 305.217,46.800 305.204 C 36.138 305.194,30.410 304.520,28.884 303.098 C 27.033 301.372,28.175 291.200,30.220 291.200 C 31.326 291.200,32.741 291.985,32.978 292.730 C 33.265 293.635,34.552 295.200,35.009 295.200 C 35.182 295.200,34.991 294.832,34.584 294.382 C 33.907 293.634,33.890 293.404,34.393 291.682 C 34.696 290.647,34.965 288.450,34.991 286.800 C 35.027 284.495,35.346 282.946,36.366 280.110 C 37.921 275.787,38.096 275.597,40.200 275.958 C 41.910 276.252,41.852 276.089,41.369 279.200 L 41.152 280.600 41.768 279.600 C 43.138 277.376,44.068 273.244,43.788 270.628 C 43.517 268.097,44.121 266.233,46.283 262.930 C 47.080 261.713,49.101 262.397,49.689 264.082 L 50.099 265.258 51.045 262.930 C 51.565 261.650,51.902 260.320,51.792 259.976 C 51.683 259.631,51.832 258.551,52.123 257.575 C 52.414 256.599,52.699 254.720,52.756 253.400 C 52.929 249.360,54.664 248.037,57.407 249.856 L 59.000 250.912 57.419 249.256 C 55.545 247.293,55.548 247.294,52.772 248.700 M119.698 253.800 C 119.847 254.063,116.891 254.156,111.062 254.072 C 101.928 253.941,99.508 254.220,99.032 255.461 C 98.685 256.366,98.746 256.382,101.000 255.957 C 105.718 255.068,108.382 255.429,113.652 257.670 C 119.562 260.183,120.865 276.404,115.453 280.089 C 113.589 281.358,112.252 283.046,110.974 285.745 C 110.320 287.127,109.243 288.567,108.295 289.328 C 105.161 291.843,103.600 293.300,103.600 293.712 C 103.600 294.795,100.941 298.081,98.962 299.444 C 97.560 300.410,96.261 301.766,95.385 303.180 C 93.704 305.892,92.300 307.493,90.199 309.092 C 88.459 310.416,86.392 314.089,85.586 317.290 C 85.054 319.403,85.551 320.393,88.084 322.262 L 89.355 323.200 106.578 323.199 C 123.235 323.197,123.844 323.170,125.145 322.377 C 126.690 321.435,126.624 320.983,125.029 321.589 C 122.456 322.567,97.162 322.101,93.713 321.012 C 89.025 319.531,88.738 319.232,90.292 317.462 C 91.725 315.830,93.379 313.072,93.809 311.600 C 94.196 310.274,97.504 306.400,98.249 306.400 C 98.572 306.400,99.246 306.809,99.746 307.310 L 100.656 308.220 102.283 306.398 C 103.907 304.577,103.908 304.574,103.155 303.643 C 102.094 302.333,102.171 302.068,104.324 299.636 C 106.372 297.324,108.046 296.995,108.717 298.773 C 108.965 299.428,109.189 299.304,110.515 297.776 L 112.030 296.030 111.215 295.215 C 110.100 294.100,110.103 294.087,112.697 290.435 C 115.517 286.464,116.537 286.218,117.177 289.350 L 117.427 290.570 118.701 288.499 C 119.970 286.437,119.972 286.426,119.149 285.850 L 118.323 285.271 119.189 284.100 C 119.739 283.357,120.210 281.845,120.479 279.964 C 120.713 278.334,121.210 274.972,121.586 272.493 L 122.268 267.986 121.132 263.693 C 120.345 260.721,120.016 258.569,120.062 256.697 C 120.098 255.211,119.980 253.861,119.800 253.697 C 119.619 253.534,119.574 253.580,119.698 253.800 M126.276 265.988 C 125.975 268.529,126.405 273.835,126.854 273.126 C 127.297 272.428,127.297 264.507,126.855 264.234 C 126.665 264.116,126.404 264.906,126.276 265.988 M62.200 282.264 C 59.079 283.906,58.800 284.494,58.800 289.444 L 58.800 293.938 57.128 295.369 C 55.962 296.367,55.067 296.800,54.171 296.800 C 53.464 296.800,51.477 297.091,49.756 297.447 C 47.626 297.888,45.663 298.020,43.613 297.862 L 40.600 297.630 42.200 298.276 C 43.346 298.740,45.562 298.974,50.016 299.102 L 56.233 299.280 58.012 297.923 C 61.197 295.494,61.600 294.538,61.600 289.416 C 61.600 285.037,61.622 284.928,62.730 283.867 L 63.859 282.785 65.230 283.707 L 66.600 284.629 66.820 289.214 L 67.040 293.800 67.120 289.147 L 67.200 284.493 65.599 283.047 C 63.779 281.403,63.818 281.412,62.200 282.264 M103.932 313.972 C 105.472 315.308,107.433 315.624,115.600 315.854 C 119.890 315.975,124.020 316.233,124.778 316.426 C 126.629 316.899,126.719 316.662,125.074 315.646 C 123.791 314.853,123.163 314.800,115.037 314.800 C 107.119 314.800,106.222 314.729,104.684 313.982 C 103.010 313.168,103.006 313.168,103.932 313.972 M222.678 426.859 C 221.401 427.564,219.814 428.825,219.151 429.662 C 218.489 430.498,216.564 432.165,214.873 433.366 C 209.095 437.472,208.949 437.659,207.813 442.392 C 206.378 448.364,208.015 450.188,210.779 445.696 C 212.488 442.918,214.013 442.274,219.200 442.139 C 221.510 442.079,224.026 441.978,224.790 441.915 C 226.088 441.808,226.266 441.944,227.490 443.982 L 228.800 446.165 228.801 468.182 C 228.802 492.353,228.512 496.324,226.609 498.228 C 225.661 499.175,220.099 500.566,212.639 501.721 C 208.392 502.379,207.292 502.936,205.926 505.115 L 205.102 506.431 206.665 507.918 C 208.118 509.300,208.496 509.441,212.014 509.908 C 217.108 510.584,242.015 510.554,247.236 509.865 C 256.555 508.635,256.264 503.217,246.800 501.754 C 240.374 500.760,237.852 499.147,237.411 495.749 C 237.272 494.677,237.042 493.440,236.900 493.000 C 236.758 492.560,236.535 478.430,236.404 461.600 L 236.166 431.000 236.183 464.400 L 236.200 497.800 237.099 499.483 C 238.649 502.383,240.875 503.360,246.474 503.600 C 251.001 503.794,251.188 503.838,252.399 504.999 L 253.650 506.198 252.603 507.099 L 251.555 508.000 233.878 507.975 C 216.528 507.951,216.164 507.934,214.244 507.068 L 212.288 506.184 214.519 505.092 C 216.544 504.101,217.167 503.999,221.275 503.991 C 227.403 503.979,229.379 503.093,231.508 499.400 C 232.582 497.537,232.566 444.983,231.490 441.505 C 230.593 438.602,228.249 434.560,226.556 432.996 C 223.515 430.185,223.959 429.088,228.400 428.443 C 233.284 427.734,234.282 427.759,235.309 428.619 C 235.821 429.049,235.675 428.838,234.983 428.152 C 234.007 427.184,233.150 426.804,231.163 426.458 C 225.442 425.462,225.185 425.474,222.678 426.859 M219.048 436.994 C 220.768 437.713,220.655 438.309,218.575 439.481 L 217.012 440.363 216.106 439.512 C 214.134 437.659,216.268 435.833,219.048 436.994 " stroke="none" fill="#608090" fill-rule="evenodd"/>
        <path id="path3" d="M221.808 49.027 C 218.488 49.855,218.281 50.284,221.054 50.590 C 228.148 51.374,234.091 52.737,235.250 53.848 L 236.400 54.950 236.400 84.591 C 236.400 116.116,236.704 122.325,238.334 124.141 C 239.839 125.819,242.185 126.734,246.600 127.365 L 251.000 127.993 252.696 129.831 C 254.608 131.902,254.566 132.372,252.319 134.076 C 250.275 135.627,245.807 136.000,229.268 136.000 C 216.120 136.000,214.530 136.072,211.962 136.784 C 208.923 137.626,207.563 137.543,205.069 136.365 C 203.759 135.747,203.614 135.735,204.069 136.286 C 205.927 138.537,206.470 138.590,229.524 138.728 C 255.566 138.885,256.388 138.762,258.438 134.422 C 260.633 129.774,256.204 123.600,250.673 123.600 C 249.756 123.600,244.686 120.712,243.341 119.423 C 241.701 117.853,241.600 115.806,241.600 84.265 L 241.600 54.170 240.700 52.396 C 238.865 48.779,229.502 47.110,221.808 49.027 M103.200 59.158 C 99.325 60.182,97.142 61.513,94.910 64.214 C 93.619 65.776,91.956 67.188,90.201 68.214 C 85.157 71.163,84.851 72.565,88.137 77.662 L 89.337 79.523 90.897 78.539 C 94.847 76.045,99.807 75.978,102.382 78.383 L 103.525 79.451 104.016 77.026 C 104.285 75.691,104.564 74.240,104.634 73.800 C 104.968 71.709,105.282 70.583,105.658 70.130 C 105.884 69.858,105.960 69.460,105.828 69.245 C 105.695 69.031,105.760 68.748,105.972 68.617 C 108.232 67.221,109.795 120.690,107.633 125.451 C 106.519 127.902,105.042 127.742,104.022 125.058 L 103.633 124.035 101.117 125.168 C 99.182 126.040,97.491 126.413,93.800 126.786 C 88.387 127.331,87.117 127.877,85.471 130.364 L 84.436 131.929 85.580 133.508 C 86.209 134.377,87.416 135.518,88.262 136.044 L 89.800 137.000 108.400 137.000 L 127.000 137.000 129.352 136.052 C 131.467 135.199,134.800 132.738,134.800 132.029 C 134.800 130.455,130.491 127.932,126.200 126.993 C 122.983 126.289,120.399 125.233,119.100 124.091 C 118.445 123.516,118.400 121.557,118.400 93.700 C 118.400 64.477,118.385 63.902,117.593 62.790 C 116.327 61.013,114.401 60.059,110.349 59.204 C 105.977 58.281,106.503 58.285,103.200 59.158 M54.121 59.406 C 50.322 61.003,47.857 65.067,47.936 69.600 C 48.002 73.343,47.506 74.204,45.657 73.560 C 44.450 73.139,44.215 72.677,44.386 71.056 C 44.545 69.558,43.640 70.880,42.575 73.703 C 41.973 75.296,41.056 77.454,40.535 78.497 C 40.015 79.541,39.618 80.441,39.654 80.497 C 39.689 80.554,39.394 82.446,38.998 84.701 C 38.254 88.935,37.201 89.488,36.903 85.800 C 36.850 85.140,36.775 84.347,36.736 84.039 C 36.611 83.032,35.342 85.032,34.035 88.296 C 33.351 90.003,32.420 92.088,31.967 92.929 C 31.328 94.114,31.198 94.868,31.388 96.272 C 31.621 97.992,30.848 101.139,29.936 102.178 C 29.594 102.567,28.493 101.611,27.746 100.276 C 26.764 98.520,24.545 105.387,24.276 111.014 C 24.052 115.714,24.757 117.273,28.015 119.288 L 29.804 120.394 39.602 120.571 C 57.394 120.892,57.473 120.923,57.961 127.752 C 58.295 132.431,58.612 133.150,61.301 135.327 C 63.634 137.215,67.374 135.944,69.057 132.691 C 70.108 130.657,70.039 98.531,68.980 96.911 C 64.531 90.108,58.400 93.174,58.400 102.203 L 58.400 106.445 57.100 107.637 C 55.580 109.031,55.387 109.082,50.400 109.386 C 45.470 109.686,38.834 108.385,37.440 106.844 C 36.781 106.116,36.845 105.989,38.993 103.790 C 41.270 101.457,41.824 100.472,43.256 96.200 C 44.274 93.163,45.534 91.040,47.554 88.960 C 49.542 86.912,50.548 85.134,52.041 81.028 C 52.983 78.438,53.680 77.304,55.569 75.289 C 57.853 72.854,58.347 71.939,60.877 65.445 L 61.639 63.490 59.709 61.645 C 57.298 59.339,55.753 58.720,54.121 59.406 M98.880 62.587 C 98.993 62.473,99.314 62.655,99.592 62.990 C 99.870 63.326,100.357 63.600,100.673 63.600 C 101.760 63.600,100.807 64.310,99.354 64.582 C 98.506 64.741,97.429 64.661,96.773 64.389 L 95.646 63.922 96.723 62.995 C 97.408 62.406,97.959 62.200,98.237 62.431 C 98.477 62.630,98.766 62.700,98.880 62.587 M214.868 68.186 C 212.761 68.853,211.927 69.576,210.117 72.301 C 209.349 73.456,208.604 74.470,208.461 74.554 C 208.097 74.768,203.601 73.298,202.941 72.751 C 202.127 72.075,202.286 72.736,203.394 74.626 C 205.870 78.851,212.112 79.041,216.091 75.013 L 217.183 73.908 218.879 74.747 C 219.811 75.208,220.717 75.443,220.893 75.267 C 221.252 74.908,221.549 68.409,221.215 68.221 C 220.360 67.739,216.348 67.717,214.868 68.186 M90.166 71.408 C 90.704 73.551,89.662 74.366,87.977 73.120 L 86.787 72.240 87.894 71.334 C 89.332 70.157,89.857 70.174,90.166 71.408 M218.333 122.137 C 217.274 123.464,217.233 123.476,213.013 123.735 C 208.322 124.022,205.554 124.924,203.939 126.694 L 203.000 127.724 204.600 126.653 C 207.335 124.823,208.642 124.669,211.778 125.806 C 217.341 127.824,219.345 127.024,219.564 122.700 C 219.679 120.437,219.687 120.441,218.333 122.137 M90.654 131.398 C 91.284 131.726,91.550 131.996,91.244 131.998 C 90.938 131.999,90.475 132.291,90.215 132.647 C 89.781 133.241,89.632 133.237,88.399 132.600 L 87.056 131.905 88.028 131.367 C 89.262 130.683,89.285 130.683,90.654 131.398 M287.400 236.058 C 283.794 236.517,281.555 237.384,280.136 238.872 L 279.000 240.062 281.082 239.244 C 283.593 238.257,285.653 238.007,287.622 238.449 C 288.429 238.631,292.130 238.836,295.845 238.906 C 303.431 239.047,305.172 239.577,308.464 242.745 C 309.296 243.545,310.549 244.641,311.249 245.181 C 313.559 246.961,315.449 250.408,315.756 253.399 C 315.905 254.859,316.305 256.870,316.643 257.866 C 317.422 260.160,317.075 266.632,315.977 270.296 C 315.565 271.668,315.110 273.738,314.966 274.896 C 314.573 278.036,312.760 280.951,309.179 284.200 C 308.278 285.017,302.814 292.617,302.807 293.062 C 302.803 293.316,302.020 293.981,301.066 294.540 C 299.052 295.721,296.992 298.105,295.355 301.150 C 294.720 302.333,293.605 303.706,292.878 304.202 C 290.014 306.155,287.947 310.036,289.094 311.304 C 291.443 313.899,292.582 314.151,303.182 314.424 C 314.435 314.713,317.626 315.350,319.977 317.776 L 321.206 319.044 320.103 320.056 C 317.332 322.597,314.606 322.959,297.235 323.092 C 284.632 323.188,280.992 323.336,279.091 323.828 C 276.183 324.582,274.897 324.332,272.585 322.567 C 270.602 321.054,270.202 321.293,271.892 322.983 C 274.714 325.805,277.582 326.088,301.663 325.925 C 320.162 325.800,320.204 325.798,322.098 324.865 C 326.659 322.619,327.632 317.942,324.324 314.175 C 322.105 311.647,321.315 311.482,310.200 311.222 C 299.439 310.970,298.871 310.874,299.792 309.468 C 300.113 308.979,300.539 307.117,300.739 305.330 C 301.185 301.344,301.109 301.465,303.961 300.185 C 306.487 299.052,307.712 297.718,308.638 295.092 C 309.523 292.583,310.238 291.699,311.627 291.394 C 313.273 291.033,315.778 288.493,316.409 286.546 C 317.361 283.609,319.190 280.448,320.528 279.428 C 324.477 276.416,326.421 267.103,325.231 256.893 C 324.394 249.703,323.955 248.859,319.052 245.006 C 318.496 244.570,317.646 243.490,317.163 242.606 C 314.731 238.160,312.947 236.979,307.407 236.147 C 303.397 235.545,291.832 235.493,287.400 236.058 M232.242 236.627 C 230.383 237.309,229.836 237.733,228.710 239.364 L 227.858 240.600 228.829 239.745 C 231.562 237.339,233.830 236.799,235.208 238.227 C 236.740 239.814,237.713 240.717,238.764 241.527 L 239.728 242.271 238.501 245.236 C 237.825 246.866,237.081 248.924,236.846 249.809 C 236.365 251.619,234.191 254.800,233.435 254.800 C 232.663 254.800,231.262 256.491,230.770 258.017 C 228.269 265.774,226.034 270.400,224.787 270.400 C 223.531 270.400,222.065 272.774,221.242 276.143 C 220.552 278.967,217.251 285.262,216.335 285.501 C 214.404 286.006,212.171 292.450,213.279 294.320 C 214.966 297.168,216.265 297.549,225.312 297.850 C 237.439 298.253,236.669 299.088,236.763 285.413 C 236.824 276.484,236.853 276.180,237.790 274.582 C 238.774 272.902,241.465 270.800,242.631 270.800 C 243.366 270.800,245.600 273.033,245.600 273.767 C 245.600 274.033,246.117 274.746,246.749 275.351 L 247.898 276.452 248.190 287.926 C 248.606 304.313,248.606 304.286,248.224 312.084 C 247.878 319.155,247.876 319.170,246.739 320.259 C 246.112 320.859,245.600 321.561,245.600 321.820 C 245.600 322.417,243.654 324.383,242.600 324.852 C 242.102 325.074,243.646 325.144,246.692 325.038 C 252.458 324.838,254.360 324.085,255.881 321.399 L 256.787 319.800 256.793 297.794 C 256.801 272.932,256.950 274.159,253.626 271.800 C 251.226 270.097,242.934 269.781,240.000 271.280 C 236.726 272.953,236.400 274.164,236.400 284.639 L 236.400 293.508 235.414 294.154 C 233.603 295.341,222.178 294.859,221.377 293.563 C 221.262 293.376,221.423 292.723,221.735 292.112 C 222.047 291.500,222.694 289.399,223.173 287.442 C 224.216 283.175,225.192 281.145,226.723 280.055 C 228.466 278.814,230.955 274.812,231.759 271.958 C 233.226 266.755,233.558 266.118,235.639 264.531 C 238.085 262.665,239.592 259.741,241.581 253.000 C 242.332 250.457,242.568 250.103,244.163 249.141 C 249.225 246.087,249.319 239.626,244.334 237.317 C 241.975 236.223,234.504 235.797,232.242 236.627 M53.800 244.255 C 51.679 244.777,50.365 245.313,49.460 246.024 L 48.471 246.802 49.735 248.116 L 51.000 249.430 52.400 248.766 C 55.312 247.386,55.562 247.400,57.242 249.041 C 58.099 249.878,58.800 250.831,58.800 251.160 C 58.800 252.315,55.483 257.600,54.758 257.600 C 53.343 257.600,51.389 261.105,49.982 266.170 C 49.029 269.598,47.459 271.968,45.938 272.272 C 44.471 272.566,44.189 272.953,43.044 276.237 C 39.844 285.416,39.258 286.550,37.156 287.622 C 35.534 288.450,34.651 289.844,34.144 292.381 C 33.359 296.305,41.427 299.097,49.155 297.577 C 53.020 296.817,52.723 294.253,48.818 294.661 C 47.184 294.832,45.927 294.707,44.496 294.232 L 42.478 293.562 43.452 291.819 C 43.988 290.860,44.667 288.925,44.961 287.519 C 45.591 284.508,46.573 282.445,47.521 282.142 C 49.745 281.431,50.365 281.000,51.140 279.622 C 51.613 278.780,52.001 277.846,52.002 277.546 C 52.003 277.245,52.448 275.920,52.992 274.600 C 53.535 273.280,54.190 271.156,54.446 269.880 C 54.863 267.806,55.066 267.481,56.361 266.820 C 59.307 265.317,59.876 264.429,62.397 257.400 C 63.247 255.032,64.147 253.321,65.028 252.400 L 66.367 251.000 63.683 248.134 C 61.669 245.983,60.601 245.164,59.400 244.851 C 57.213 244.279,54.763 244.019,53.800 244.255 M97.378 244.397 C 92.516 245.111,89.258 247.565,93.051 247.657 C 96.107 247.731,96.178 247.727,101.800 247.183 C 111.481 246.247,118.044 248.113,119.429 252.195 C 120.031 253.967,120.855 254.738,122.508 255.076 C 123.117 255.201,124.089 255.865,124.668 256.552 C 126.758 259.030,126.944 259.987,126.972 268.400 L 126.997 276.200 125.460 279.447 C 124.382 281.726,123.416 283.119,122.222 284.117 C 120.430 285.615,117.056 290.639,116.587 292.510 C 116.295 293.672,114.676 295.200,113.737 295.200 C 112.665 295.200,109.654 298.430,108.954 300.332 C 108.056 302.771,106.992 303.917,105.169 304.408 C 103.480 304.863,100.967 307.394,100.549 309.062 C 100.143 310.677,101.086 311.952,103.800 313.458 L 106.200 314.790 115.040 314.795 L 123.880 314.800 125.440 315.946 C 126.298 316.576,127.411 317.539,127.914 318.087 L 128.828 319.081 127.314 320.570 C 124.563 323.275,125.501 323.160,105.749 323.220 C 88.712 323.272,87.670 323.233,85.400 322.467 C 82.598 321.521,82.524 321.541,83.632 322.950 C 85.912 325.848,85.499 325.800,108.200 325.800 L 128.600 325.800 131.185 324.694 C 142.729 319.752,136.289 312.007,120.627 311.997 C 117.972 311.995,114.180 311.817,112.200 311.602 C 105.276 310.848,104.818 310.590,108.335 309.422 C 110.780 308.610,112.601 306.734,113.544 304.057 C 114.412 301.591,114.547 301.441,116.450 300.834 C 118.875 300.060,120.701 298.109,121.724 295.200 C 122.598 292.715,122.749 292.539,125.127 291.225 C 128.078 289.593,128.937 288.112,130.590 281.800 C 131.166 279.600,132.150 276.810,132.775 275.600 C 133.401 274.390,134.290 272.174,134.751 270.675 L 135.589 267.950 134.567 265.522 C 134.005 264.186,133.187 262.608,132.749 262.016 C 132.311 261.424,131.671 259.693,131.327 258.170 C 129.631 250.669,125.249 245.971,118.619 244.548 C 115.980 243.981,100.938 243.874,97.378 244.397 M291.400 247.919 C 289.215 248.676,288.555 249.100,286.291 251.200 C 281.738 255.425,281.270 255.981,280.615 257.954 C 279.925 260.032,277.229 262.906,276.260 262.598 C 275.192 262.258,270.400 262.094,270.400 262.398 C 270.400 263.020,272.766 264.721,274.615 265.427 C 278.272 266.824,283.003 264.917,287.406 260.272 C 288.069 259.572,289.193 258.550,289.904 258.000 C 290.614 257.450,291.758 256.221,292.445 255.268 L 293.696 253.536 295.748 253.788 C 302.720 254.642,302.044 254.385,303.360 256.690 C 304.703 259.045,305.109 259.238,304.214 257.096 C 303.887 256.311,302.609 254.676,301.376 253.463 C 299.340 251.459,299.146 251.118,299.263 249.756 C 299.376 248.444,299.267 248.222,298.396 247.991 C 295.675 247.268,293.348 247.244,291.400 247.919 M84.290 253.901 C 83.616 254.646,82.679 256.812,82.924 257.057 C 83.005 257.138,83.561 256.303,84.160 255.202 C 85.306 253.097,85.342 252.738,84.290 253.901 M103.200 255.629 C 97.113 256.430,96.647 256.665,95.000 259.762 C 90.620 267.999,89.038 269.223,87.168 265.823 C 86.677 264.930,86.233 264.145,86.183 264.078 C 86.132 264.012,85.502 264.315,84.783 264.752 C 81.271 266.888,82.626 271.432,87.365 273.411 C 90.358 274.661,94.402 272.747,96.180 269.240 C 96.969 267.683,97.570 267.072,98.896 266.479 C 101.164 265.466,102.719 263.845,103.844 261.322 C 104.353 260.179,105.105 259.065,105.513 258.846 C 106.412 258.365,109.595 259.066,109.610 259.749 C 109.616 259.997,109.951 259.480,110.355 258.600 C 111.238 256.675,111.177 256.529,109.283 256.033 C 106.617 255.334,105.834 255.282,103.200 255.629 M60.899 278.747 C 57.155 280.049,56.622 280.918,58.386 282.850 C 59.481 284.048,59.628 284.100,60.286 283.523 C 62.761 281.351,64.071 281.355,66.148 283.537 L 67.296 284.743 67.299 301.996 L 67.302 319.250 66.151 320.459 C 64.088 322.627,62.765 322.646,60.359 320.543 C 59.799 320.053,59.534 320.153,58.239 321.339 L 56.759 322.694 58.006 323.744 C 62.066 327.160,69.103 326.136,71.365 321.800 C 72.376 319.862,72.906 286.977,71.977 283.800 C 70.675 279.343,65.705 277.076,60.899 278.747 M23.738 306.959 C 25.360 309.404,27.260 309.783,39.034 310.006 C 47.346 310.164,50.045 310.340,50.546 310.755 C 50.906 311.054,51.223 311.141,51.251 310.949 C 51.279 310.757,51.343 310.219,51.394 309.754 C 51.444 309.289,51.606 308.713,51.754 308.474 C 52.459 307.334,50.128 306.998,39.400 306.695 C 33.460 306.527,27.381 306.329,25.890 306.254 C 23.214 306.119,23.188 306.128,23.738 306.959 M203.444 307.423 C 205.494 310.110,207.307 310.439,221.477 310.696 L 233.953 310.922 234.358 311.961 C 234.581 312.532,235.160 314.486,235.645 316.303 C 236.130 318.120,236.588 319.545,236.662 319.471 C 237.197 318.936,235.994 308.284,235.345 307.809 C 234.157 306.941,213.684 306.771,210.800 307.606 C 208.486 308.276,208.026 308.219,204.309 306.799 L 202.417 306.076 203.444 307.423 M236.802 320.120 C 236.793 321.486,240.050 324.805,241.393 324.798 C 241.617 324.797,241.100 324.372,240.244 323.854 C 239.388 323.336,238.264 322.212,237.746 321.356 C 237.228 320.500,236.803 319.944,236.802 320.120 M221.662 423.411 C 218.062 424.408,218.062 424.656,221.661 424.937 C 223.497 425.081,225.630 425.365,226.400 425.568 C 227.170 425.771,229.120 426.150,230.734 426.410 C 233.019 426.779,233.970 427.149,235.034 428.083 L 236.400 429.283 236.413 459.141 C 236.423 483.054,236.541 489.797,237.005 493.000 C 237.324 495.200,237.588 497.144,237.592 497.319 C 237.632 498.960,241.840 500.987,246.800 501.754 C 251.689 502.510,255.164 504.974,253.895 506.786 C 251.701 509.919,248.594 510.366,228.892 510.386 C 215.313 510.399,214.198 510.454,211.492 511.247 L 208.600 512.095 206.000 511.054 L 203.400 510.013 204.501 510.988 C 206.610 512.856,207.352 512.918,229.884 513.097 C 248.596 513.246,251.435 513.188,253.382 512.622 C 262.068 510.097,260.643 500.036,251.320 498.058 C 249.598 497.693,245.559 495.681,244.800 494.811 C 244.690 494.685,244.133 494.285,243.561 493.922 C 241.686 492.730,241.600 491.186,241.600 458.618 L 241.600 428.570 240.700 426.785 C 238.868 423.151,228.946 421.393,221.662 423.411 M92.800 433.341 C 86.192 434.425,83.912 437.451,87.216 440.754 C 89.018 442.556,92.162 443.199,102.200 443.815 C 106.720 444.093,107.452 444.297,109.238 445.781 C 110.687 446.985,108.659 450.400,106.494 450.400 C 104.107 450.400,98.777 458.828,100.182 460.380 C 100.522 460.756,100.800 461.364,100.800 461.731 C 100.800 462.099,100.955 462.400,101.145 462.400 C 101.335 462.400,101.458 462.715,101.417 463.100 C 101.303 464.180,100.751 465.217,100.403 465.002 C 100.231 464.896,99.880 465.063,99.622 465.374 C 98.904 466.238,101.882 467.785,106.618 469.009 C 108.808 469.575,111.239 470.368,112.021 470.771 C 113.241 471.401,113.548 471.428,114.188 470.959 C 115.076 470.310,116.257 471.583,116.078 472.996 C 116.021 473.438,116.521 475.290,117.188 477.112 C 118.994 482.046,118.723 491.265,116.695 493.893 C 116.486 494.163,116.199 495.333,116.057 496.493 C 115.802 498.575,115.782 498.601,114.400 498.642 C 113.630 498.665,111.571 499.163,109.825 499.749 L 106.650 500.815 104.025 499.956 C 101.424 499.104,96.903 495.250,94.690 492.000 C 92.502 488.785,91.547 487.617,90.494 486.867 L 89.317 486.029 87.963 487.028 C 86.133 488.378,85.746 489.243,84.988 493.692 L 84.338 497.504 85.343 499.488 C 86.286 501.349,88.782 504.000,89.591 504.000 C 89.790 504.000,90.774 505.067,91.778 506.371 C 96.631 512.678,114.811 513.551,120.060 507.730 C 121.411 506.231,123.064 504.588,125.557 502.265 C 128.278 499.728,129.609 493.949,129.579 484.800 C 129.542 473.768,128.292 469.313,124.070 465.173 C 122.822 463.948,120.931 461.755,119.868 460.299 C 118.805 458.843,117.395 457.086,116.735 456.394 C 115.559 455.164,115.549 455.118,116.258 454.269 C 117.726 452.509,120.653 449.900,122.520 448.687 C 125.230 446.926,128.400 441.339,128.400 438.324 C 128.400 437.166,126.734 435.073,124.909 433.938 C 123.092 432.809,98.802 432.357,92.800 433.341 M53.235 434.219 C 49.711 436.233,48.006 439.389,47.987 443.933 C 47.971 447.745,47.479 448.595,45.657 447.960 C 44.584 447.586,44.299 447.172,44.307 446.000 C 44.307 445.890,44.428 445.350,44.575 444.800 C 45.132 442.712,43.634 445.261,42.356 448.578 C 41.673 450.350,40.799 452.430,40.415 453.200 C 39.792 454.450,38.810 459.265,38.433 462.924 C 38.415 463.102,38.217 463.134,37.993 462.996 C 37.770 462.858,37.687 462.582,37.810 462.384 C 37.933 462.185,37.735 461.568,37.371 461.011 C 37.006 460.455,36.855 460.000,37.034 460.000 C 37.213 460.000,37.158 459.798,36.911 459.551 C 36.664 459.304,36.553 458.809,36.663 458.451 C 37.214 456.667,34.735 460.478,33.983 462.573 C 33.504 463.908,32.675 465.883,32.141 466.963 C 31.370 468.520,31.223 469.280,31.427 470.640 C 31.671 472.269,30.851 475.536,29.936 476.578 C 29.588 476.974,28.490 476.005,27.713 474.616 C 27.255 473.798,26.511 475.031,25.189 478.800 C 24.399 481.052,23.999 488.805,24.612 490.000 C 26.776 494.220,28.408 494.797,38.247 494.820 C 55.964 494.861,57.559 495.416,57.901 501.657 C 58.397 510.709,64.620 513.756,68.984 507.083 C 70.205 505.216,70.089 473.085,68.854 471.087 C 66.976 468.049,63.792 466.839,61.663 468.355 C 58.724 470.448,58.400 471.222,58.400 476.152 L 58.400 480.643 57.049 481.953 C 54.377 484.543,43.650 484.424,38.325 481.746 C 36.582 480.869,36.646 480.523,39.002 478.110 C 41.071 475.990,42.800 473.090,42.800 471.738 C 42.800 470.460,45.771 465.050,47.331 463.485 C 49.357 461.454,50.845 458.962,51.800 456.000 C 52.791 452.922,53.280 452.097,55.551 449.662 C 57.651 447.410,58.138 446.556,60.253 441.403 C 61.876 437.452,61.370 436.258,57.116 433.991 C 55.270 433.007,55.364 433.002,53.235 434.219 M91.484 437.319 C 92.658 438.119,92.701 438.219,91.984 438.484 C 91.553 438.644,91.200 438.931,91.200 439.123 C 91.200 440.285,89.167 440.359,87.917 439.243 L 86.639 438.100 87.819 437.061 C 89.090 435.943,89.507 435.972,91.484 437.319 M215.600 442.235 C 212.596 443.335,211.968 443.822,210.373 446.288 C 208.783 448.746,208.637 448.863,207.450 448.623 C 206.762 448.484,205.660 448.265,205.000 448.137 C 204.340 448.008,203.454 447.609,203.032 447.251 C 202.310 446.639,202.282 446.648,202.554 447.400 C 204.617 453.095,211.021 453.995,216.073 449.299 L 217.146 448.302 218.994 449.197 C 220.010 449.689,220.936 449.998,221.050 449.883 C 221.326 449.607,221.413 442.880,221.144 442.611 C 220.826 442.293,216.283 441.985,215.600 442.235 M218.200 496.602 C 217.033 497.844,216.881 497.886,212.661 498.138 C 208.166 498.406,205.572 499.178,204.403 500.592 C 203.865 501.244,203.964 501.235,205.403 500.506 C 208.164 499.108,209.256 499.054,212.023 500.178 C 217.266 502.308,220.009 500.988,219.533 496.563 L 219.400 495.325 218.200 496.602 " stroke="none" fill="#5a5045" fill-rule="evenodd"/>
        <path id="path4" d="M216.171 51.128 C 215.495 51.553,214.505 52.470,213.971 53.166 C 211.489 56.396,210.661 57.161,208.314 58.394 C 203.768 60.780,203.221 61.681,202.602 67.800 C 202.110 72.666,202.154 72.791,204.600 73.561 C 208.425 74.765,208.340 74.755,208.879 74.089 C 209.166 73.736,209.201 73.565,208.958 73.711 C 208.715 73.856,208.134 73.568,207.666 73.071 L 206.816 72.166 207.822 67.983 L 208.828 63.800 211.314 61.774 C 212.681 60.660,214.700 59.140,215.800 58.397 C 216.900 57.654,218.053 56.696,218.361 56.268 C 219.527 54.652,221.466 53.060,223.336 52.184 C 225.617 51.115,225.352 50.961,220.600 50.598 C 217.857 50.388,217.225 50.464,216.171 51.128 M96.723 62.995 L 95.646 63.922 96.773 64.389 C 97.429 64.661,98.506 64.741,99.354 64.582 C 100.807 64.310,101.760 63.600,100.673 63.600 C 100.357 63.600,99.870 63.326,99.592 62.990 C 99.314 62.655,98.993 62.473,98.880 62.587 C 98.766 62.700,98.477 62.630,98.237 62.431 C 97.959 62.200,97.408 62.406,96.723 62.995 M46.310 67.100 C 45.471 68.057,44.502 70.031,44.396 71.000 C 44.212 72.675,44.438 73.135,45.657 73.560 C 47.528 74.212,48.007 73.350,47.914 69.500 C 47.836 66.282,47.486 65.759,46.310 67.100 M222.973 67.739 L 221.346 68.200 221.290 70.600 C 221.260 71.920,221.231 82.450,221.227 94.000 C 221.219 113.612,221.167 115.178,220.439 117.694 C 220.011 119.176,219.618 121.336,219.567 122.494 C 219.515 123.652,219.307 124.930,219.104 125.334 C 218.569 126.400,218.741 126.425,221.813 125.731 C 228.876 124.136,228.799 124.488,228.799 93.880 C 228.800 70.169,228.896 71.321,226.663 68.300 C 225.778 67.103,225.415 67.048,222.973 67.739 M105.953 68.700 C 105.927 68.865,105.933 69.154,105.967 69.342 C 106.000 69.530,105.852 69.896,105.638 70.155 C 105.268 70.600,104.959 71.758,104.611 74.000 C 104.526 74.550,104.268 75.810,104.038 76.800 C 103.476 79.219,103.446 123.542,104.005 125.014 C 104.465 126.222,106.021 127.634,106.540 127.314 C 109.159 125.695,109.372 78.704,106.801 69.900 C 106.388 68.487,106.060 68.022,105.953 68.700 M87.894 71.334 L 86.787 72.240 87.977 73.120 C 89.429 74.193,89.468 74.195,89.996 73.208 C 91.115 71.116,89.701 69.855,87.894 71.334 M38.289 80.900 C 37.352 81.607,36.382 84.124,36.792 84.787 C 36.977 85.087,37.060 85.686,36.977 86.119 C 36.894 86.552,37.147 87.315,37.541 87.816 C 38.249 88.716,38.264 88.683,39.042 84.563 C 39.841 80.334,39.734 79.811,38.289 80.900 M30.333 94.750 C 28.626 95.390,26.937 98.762,27.654 100.101 C 28.420 101.532,29.578 102.586,29.936 102.178 C 31.686 100.184,32.010 94.122,30.333 94.750 M207.051 125.387 C 197.608 128.753,201.746 139.381,211.541 136.920 C 214.425 136.196,214.208 135.844,210.613 135.409 C 208.563 135.161,208.009 134.903,206.682 133.576 L 205.137 132.031 205.868 130.777 C 206.978 128.875,208.507 127.999,211.699 127.433 C 214.912 126.864,214.928 126.893,210.600 125.374 C 208.695 124.705,208.969 124.704,207.051 125.387 M88.028 131.367 L 87.056 131.905 88.399 132.600 C 89.632 133.237,89.781 133.241,90.215 132.647 C 90.475 132.291,90.938 131.999,91.244 131.998 C 91.550 131.996,91.284 131.726,90.654 131.398 C 89.285 130.683,89.262 130.683,88.028 131.367 M231.138 238.207 C 229.063 239.288,228.059 240.399,226.789 243.022 C 226.316 243.999,225.244 245.291,224.408 245.893 C 222.404 247.333,221.194 249.349,219.423 254.200 C 217.206 260.272,217.166 260.357,216.388 260.604 C 215.177 260.988,212.956 263.759,212.193 265.839 C 210.244 271.149,209.101 273.340,206.972 275.850 C 203.902 279.469,203.044 281.531,201.615 288.723 C 199.110 301.335,200.165 305.907,205.932 307.426 C 206.959 307.696,207.980 307.973,208.200 308.040 C 208.420 308.108,209.590 307.910,210.800 307.600 L 213.000 307.037 210.600 306.732 C 208.376 306.449,208.057 306.274,206.261 304.343 L 204.322 302.259 204.492 297.429 C 204.781 289.270,205.981 285.219,209.014 282.171 C 210.967 280.208,211.596 279.251,212.172 277.360 C 213.224 273.911,215.801 269.262,217.805 267.200 C 219.567 265.387,220.784 263.058,221.616 259.908 C 222.176 257.788,223.895 255.041,225.814 253.200 C 227.450 251.629,229.057 248.670,230.373 244.800 C 231.560 241.308,233.275 239.503,235.081 239.842 C 236.714 240.148,236.790 239.594,235.304 238.216 C 233.965 236.974,233.506 236.973,231.138 238.207 M283.200 238.574 C 280.115 239.446,279.359 239.884,278.014 241.583 C 277.296 242.489,276.007 243.588,275.149 244.026 C 272.134 245.564,270.894 248.098,269.457 255.653 C 268.379 261.319,268.736 261.955,273.175 262.283 L 276.096 262.499 274.561 261.092 L 273.027 259.686 273.719 255.343 C 274.503 250.426,275.026 249.461,277.696 247.995 C 280.073 246.691,281.121 245.719,282.006 244.000 C 283.181 241.718,284.768 240.540,287.800 239.701 L 290.600 238.926 288.763 238.648 C 287.753 238.495,286.493 238.301,285.963 238.218 C 285.433 238.134,284.190 238.294,283.200 238.574 M46.600 247.948 C 44.212 249.431,40.800 254.806,40.800 257.085 C 40.800 258.910,39.109 261.660,37.095 263.110 C 34.964 264.645,33.348 267.583,31.355 273.547 C 30.395 276.418,30.030 277.024,28.785 277.810 C 26.345 279.350,25.301 280.981,23.979 285.316 C 23.294 287.562,22.320 290.570,21.814 292.000 C 20.132 296.752,19.705 301.696,20.847 303.203 C 22.695 305.643,23.628 306.475,24.251 306.236 C 24.589 306.106,25.611 306.000,26.522 306.000 C 28.108 306.000,28.142 305.975,27.322 305.400 C 22.739 302.191,24.713 288.776,30.621 282.975 C 31.576 282.038,32.580 280.514,32.993 279.375 C 34.760 274.503,36.128 272.033,38.108 270.138 C 40.177 268.157,41.330 266.053,43.405 260.469 C 44.278 258.119,44.953 257.087,46.809 255.269 C 48.082 254.021,49.524 252.137,50.014 251.082 L 50.905 249.164 49.983 248.182 C 48.879 247.006,48.193 246.959,46.600 247.948 M88.123 249.956 C 86.761 251.267,85.253 253.119,84.771 254.070 C 84.290 255.022,83.514 256.340,83.048 257.000 C 82.062 258.396,81.469 268.000,82.369 268.000 C 82.617 268.000,82.928 267.459,83.061 266.797 C 83.229 265.955,83.746 265.344,84.786 264.760 L 86.270 263.926 85.886 261.984 C 85.263 258.831,87.120 255.513,90.236 254.211 C 91.073 253.861,92.039 252.936,92.769 251.784 C 93.419 250.760,94.512 249.507,95.200 249.000 C 96.723 247.876,96.513 247.733,93.200 247.643 L 90.600 247.573 88.123 249.956 M299.259 249.650 C 299.170 251.155,299.339 251.458,301.390 253.477 C 306.724 258.726,306.188 270.277,300.341 276.077 C 297.301 279.093,296.177 280.668,295.154 283.340 C 294.385 285.349,294.036 285.767,292.541 286.470 C 290.130 287.603,288.488 289.381,287.131 292.327 C 286.198 294.354,285.691 294.970,284.575 295.436 C 282.450 296.324,280.189 298.589,279.251 300.770 C 278.421 302.699,277.576 303.568,274.815 305.328 C 272.419 306.857,271.236 309.007,270.585 313.016 C 269.473 319.865,270.077 321.604,274.270 323.634 L 276.104 324.522 279.152 323.785 C 280.828 323.379,281.840 322.983,281.400 322.903 C 273.528 321.483,272.787 320.529,274.768 314.367 C 275.851 310.999,276.110 310.577,278.313 308.584 C 279.634 307.388,281.431 305.184,282.362 303.618 C 283.373 301.915,284.499 300.562,285.212 300.194 C 287.262 299.134,289.218 297.139,290.270 295.036 C 291.525 292.526,292.586 291.336,294.400 290.400 C 296.231 289.455,297.409 288.159,298.220 286.195 C 299.202 283.817,300.666 282.075,302.770 280.780 C 304.998 279.409,305.149 279.155,307.252 273.200 C 308.540 269.552,308.963 267.648,309.295 264.000 L 309.713 259.400 307.061 254.774 C 304.009 249.449,303.212 248.596,300.978 248.260 L 299.355 248.015 299.259 249.650 M110.610 257.980 C 109.511 260.105,110.487 262.782,113.436 265.731 C 115.586 267.881,115.594 268.110,113.640 271.719 C 112.783 273.303,111.962 275.001,111.816 275.492 C 111.670 275.983,110.925 277.423,110.159 278.692 C 109.394 279.961,108.502 281.900,108.178 283.000 C 107.415 285.587,107.299 285.741,105.395 286.706 C 103.148 287.845,101.733 289.380,100.488 292.030 C 99.785 293.526,98.932 294.624,98.008 295.223 C 97.234 295.725,95.920 296.583,95.089 297.130 C 93.992 297.852,93.205 298.903,92.221 300.962 C 90.979 303.561,90.672 303.899,88.579 304.977 C 84.914 306.864,83.915 308.626,82.402 315.862 C 81.374 320.783,81.796 321.438,87.000 322.993 C 89.927 323.869,90.324 323.737,88.492 322.500 C 85.637 320.572,85.033 319.488,85.586 317.290 C 86.392 314.089,88.459 310.416,90.199 309.092 C 92.300 307.493,93.704 305.892,95.385 303.180 C 96.261 301.766,97.560 300.410,98.962 299.444 C 100.941 298.081,103.600 294.795,103.600 293.712 C 103.600 293.300,105.161 291.843,108.295 289.328 C 109.243 288.567,110.320 287.127,110.974 285.745 C 112.252 283.046,113.589 281.358,115.453 280.089 C 120.909 276.373,119.559 260.202,113.578 257.629 C 111.174 256.594,111.337 256.575,110.610 257.980 M240.200 271.971 C 237.041 274.211,236.833 275.023,236.785 285.332 C 236.762 290.321,236.588 294.943,236.399 295.602 C 235.943 297.193,236.330 297.115,238.544 295.166 L 240.400 293.532 240.400 284.836 L 240.400 276.139 241.386 275.213 C 242.219 274.430,242.645 274.325,244.145 274.530 C 246.248 274.819,246.322 274.057,244.390 271.989 C 243.020 270.522,242.246 270.519,240.200 271.971 M55.511 282.714 C 53.289 284.546,53.226 284.724,53.213 289.236 C 53.200 293.403,53.183 293.479,52.161 293.945 C 51.466 294.262,51.201 294.625,51.361 295.042 C 51.492 295.385,51.600 295.966,51.600 296.333 C 51.599 297.623,55.263 296.965,57.171 295.332 L 58.800 293.938 58.800 289.392 C 58.800 286.823,58.972 284.741,59.196 284.602 C 59.641 284.328,58.194 282.160,57.350 281.836 C 57.059 281.725,56.232 282.120,55.511 282.714 M51.692 308.071 C 51.669 308.362,51.556 309.198,51.441 309.928 C 51.237 311.219,51.841 314.288,53.039 318.044 C 53.442 319.308,54.128 320.290,55.219 321.167 L 56.811 322.447 58.024 321.583 C 59.126 320.799,59.217 320.567,59.015 319.060 C 58.893 318.147,58.609 315.780,58.384 313.800 C 57.934 309.855,56.688 308.042,54.400 308.005 C 53.850 307.996,53.025 307.888,52.567 307.765 C 52.038 307.623,51.718 307.735,51.692 308.071 M236.170 310.277 C 236.281 311.335,236.478 313.910,236.608 316.000 C 236.886 320.503,237.825 322.505,240.315 323.904 C 242.388 325.069,242.806 325.037,244.278 323.598 C 246.373 321.550,246.305 320.732,244.065 321.027 C 241.280 321.394,240.616 320.494,239.760 315.194 C 239.078 310.974,238.473 309.705,236.683 308.740 C 236.029 308.388,235.984 308.522,236.170 310.277 M216.171 425.552 C 215.495 425.965,214.505 426.889,213.971 427.606 C 212.195 429.991,210.137 431.848,208.322 432.701 C 204.151 434.661,203.087 436.466,202.496 442.581 C 202.081 446.881,202.492 447.951,204.572 447.987 C 204.996 447.994,205.918 448.208,206.621 448.462 C 208.118 449.003,210.021 448.560,208.586 448.005 C 206.825 447.323,206.754 446.801,207.818 442.369 C 208.949 437.662,209.100 437.469,214.873 433.366 C 216.564 432.165,218.498 430.486,219.172 429.636 C 219.882 428.739,221.490 427.524,222.999 426.744 L 225.601 425.400 223.900 425.130 C 220.543 424.596,217.464 424.764,216.171 425.552 M87.819 437.061 L 86.639 438.100 87.917 439.243 C 89.167 440.359,91.200 440.285,91.200 439.123 C 91.200 438.931,91.553 438.644,91.984 438.484 C 92.701 438.219,92.658 438.119,91.484 437.319 C 89.507 435.972,89.090 435.943,87.819 437.061 M46.241 441.555 C 44.127 443.891,43.827 447.322,45.680 447.968 C 47.481 448.596,47.972 447.730,47.987 443.900 C 48.001 440.585,47.603 440.050,46.241 441.555 M222.717 442.108 L 221.234 442.533 221.258 444.766 C 221.522 469.650,221.165 489.576,220.408 492.199 C 219.964 493.738,219.600 495.751,219.600 496.673 C 219.600 497.594,219.415 498.835,219.189 499.429 C 218.643 500.864,218.499 500.847,222.566 499.823 C 228.817 498.248,228.802 498.324,228.801 468.182 L 228.800 446.165 227.499 443.982 C 226.073 441.592,225.419 441.335,222.717 442.108 M37.795 455.751 C 36.829 457.226,36.410 459.050,36.920 459.560 C 37.162 459.802,37.213 460.000,37.034 460.000 C 36.855 460.000,37.006 460.455,37.371 461.011 C 37.735 461.568,37.933 462.185,37.810 462.384 C 37.687 462.582,37.770 462.858,37.993 462.996 C 38.217 463.134,38.412 463.102,38.428 462.924 C 38.501 462.061,38.767 460.361,39.163 458.216 C 39.840 454.553,39.263 453.512,37.795 455.751 M98.570 460.340 C 95.862 462.543,96.415 466.601,99.273 465.504 C 99.563 465.393,99.932 465.324,100.092 465.351 C 100.539 465.426,101.483 463.889,101.474 463.100 C 101.470 462.715,101.317 462.400,101.133 462.400 C 100.950 462.400,100.800 462.068,100.800 461.662 C 100.800 460.295,99.542 459.549,98.570 460.340 M30.024 469.308 C 28.508 470.072,27.002 473.283,27.620 474.437 C 29.195 477.380,29.897 477.319,31.009 474.139 C 32.036 471.204,31.497 468.565,30.024 469.308 M114.151 470.996 C 113.457 471.513,113.446 471.640,114.014 472.675 C 114.815 474.136,115.842 474.338,116.083 473.080 C 116.364 471.606,115.127 470.270,114.151 470.996 M114.189 496.820 C 113.466 498.219,113.808 498.973,115.058 498.732 C 115.607 498.626,115.800 498.236,115.800 497.228 C 115.800 495.433,115.010 495.233,114.189 496.820 M207.597 499.574 C 200.465 501.743,199.408 508.316,205.770 510.939 L 208.540 512.081 211.075 511.395 C 214.511 510.464,214.532 510.101,211.166 509.769 C 208.586 509.515,208.164 509.344,206.709 507.960 L 205.102 506.431 205.926 505.115 C 207.174 503.124,208.391 502.398,211.327 501.895 C 214.576 501.339,214.621 501.149,211.764 500.056 C 209.362 499.136,209.126 499.109,207.597 499.574 " stroke="none" fill="#344c74" fill-rule="evenodd"/>
    </g>
</svg>
